<svg width="35" height="35" viewBox="0 0 35 35" fill="none" xmlns="http://www.w3.org/2000/svg">
<g id="iconos bco">
<path id="Vector" d="M10.2083 32.0834C9.40617 32.0834 8.71929 31.7975 8.14763 31.2259C7.57596 30.6542 7.29061 29.9678 7.29159 29.1667C7.29159 28.3646 7.57742 27.6777 8.14909 27.1061C8.72075 26.5344 9.40714 26.249 10.2083 26.25C11.0103 26.25 11.6972 26.5359 12.2689 27.1075C12.8405 27.6792 13.1259 28.3656 13.1249 29.1667C13.1249 29.9688 12.8391 30.6556 12.2674 31.2273C11.6958 31.799 11.0094 32.0843 10.2083 32.0834ZM24.7916 32.0834C23.9895 32.0834 23.3026 31.7975 22.731 31.2259C22.1593 30.6542 21.8739 29.9678 21.8749 29.1667C21.8749 28.3646 22.1608 27.6777 22.7324 27.1061C23.3041 26.5344 23.9905 26.249 24.7916 26.25C25.5937 26.25 26.2805 26.5359 26.8522 27.1075C27.4239 27.6792 27.7092 28.3656 27.7083 29.1667C27.7083 29.9688 27.4224 30.6556 26.8508 31.2273C26.2791 31.799 25.5927 32.0843 24.7916 32.0834ZM7.58325 5.83335H29.0937C29.6527 5.83335 30.078 6.08273 30.3697 6.58148C30.6614 7.08023 30.6735 7.58433 30.4062 8.09377L25.2291 17.4271C24.9617 17.9132 24.603 18.29 24.1528 18.5573C23.7027 18.8247 23.2108 18.9584 22.677 18.9584H11.8124L10.2083 21.875H27.7083V24.7917H10.2083C9.1145 24.7917 8.28811 24.3114 7.72909 23.3509C7.17006 22.3903 7.14575 21.4365 7.65617 20.4896L9.62492 16.9167L4.37492 5.83335H1.45825V2.91669H6.19784L7.58325 5.83335Z" fill="#FAF3FE"/>
</g>
</svg>
