<svg width="20" height="20" viewBox="0 0 20 20" fill="none" xmlns="http://www.w3.org/2000/svg">
<g id="flat-color-icons:google">
<path id="Vector" d="M18.1713 8.368H17.5V8.33341H10V11.6667H14.7096C14.0225 13.6072 12.1763 15.0001 10 15.0001C7.23877 15.0001 5.00002 12.7613 5.00002 10.0001C5.00002 7.23883 7.23877 5.00008 10 5.00008C11.2746 5.00008 12.4342 5.48091 13.3171 6.26633L15.6742 3.90925C14.1859 2.52216 12.195 1.66675 10 1.66675C5.39794 1.66675 1.66669 5.398 1.66669 10.0001C1.66669 14.6022 5.39794 18.3334 10 18.3334C14.6021 18.3334 18.3334 14.6022 18.3334 10.0001C18.3334 9.44133 18.2759 8.89591 18.1713 8.368Z" fill="#FFC107"/>
<path id="Vector_2" d="M2.6275 6.12133L5.36542 8.12925C6.10625 6.29508 7.90042 5.00008 10 5.00008C11.2746 5.00008 12.4342 5.48091 13.3171 6.26633L15.6742 3.90925C14.1858 2.52216 12.195 1.66675 10 1.66675C6.79917 1.66675 4.02334 3.47383 2.6275 6.12133Z" fill="#FF3D00"/>
<path id="Vector_3" d="M9.99999 18.3334C12.1525 18.3334 14.1083 17.5096 15.5871 16.17L13.0079 13.9875C12.1431 14.6452 11.0864 15.0009 9.99999 15C7.83249 15 5.99207 13.618 5.29874 11.6892L2.58124 13.783C3.9604 16.4817 6.76124 18.3334 9.99999 18.3334Z" fill="#4CAF50"/>
<path id="Vector_4" d="M18.1712 8.36784H17.5V8.33325H10V11.6666H14.7096C14.3809 12.5901 13.7889 13.3971 13.0067 13.9878L13.0079 13.987L15.5871 16.1695C15.4046 16.3353 18.3333 14.1666 18.3333 9.99992C18.3333 9.44117 18.2758 8.89575 18.1712 8.36784Z" fill="#1976D2"/>
</g>
</svg>
