<svg width="21" height="20" viewBox="0 0 21 20" fill="none" xmlns="http://www.w3.org/2000/svg">
<g id="material-symbols:shopping-cart">
<path id="Vector" d="M6.08984 18.3333C5.63151 18.3333 5.23901 18.17 4.91234 17.8433C4.58568 17.5166 4.42262 17.1244 4.42318 16.6666C4.42318 16.2083 4.58651 15.8158 4.91318 15.4891C5.23984 15.1625 5.63207 14.9994 6.08984 15C6.54818 15 6.94068 15.1633 7.26734 15.49C7.59401 15.8166 7.75707 16.2088 7.75651 16.6666C7.75651 17.125 7.59318 17.5175 7.26651 17.8441C6.93984 18.1708 6.54762 18.3338 6.08984 18.3333ZM14.4232 18.3333C13.9648 18.3333 13.5723 18.17 13.2457 17.8433C12.919 17.5166 12.756 17.1244 12.7565 16.6666C12.7565 16.2083 12.9198 15.8158 13.2465 15.4891C13.5732 15.1625 13.9654 14.9994 14.4232 15C14.8815 15 15.274 15.1633 15.6007 15.49C15.9273 15.8166 16.0904 16.2088 16.0898 16.6666C16.0898 17.125 15.9265 17.5175 15.5998 17.8441C15.2732 18.1708 14.881 18.3338 14.4232 18.3333ZM4.58984 3.33329H16.8815C17.201 3.33329 17.444 3.47579 17.6107 3.76079C17.7773 4.04579 17.7843 4.33385 17.6315 4.62496L14.6732 9.95829C14.5204 10.2361 14.3154 10.4513 14.0582 10.6041C13.801 10.7569 13.5198 10.8333 13.2148 10.8333H7.00651L6.08984 12.5H16.0898V14.1666H6.08984C5.46484 14.1666 4.99262 13.8922 4.67318 13.3433C4.35373 12.7944 4.33984 12.2494 4.63151 11.7083L5.75651 9.66663L2.75651 3.33329H1.08984V1.66663H3.79818L4.58984 3.33329Z" fill="#2B043B" fill-opacity="0.5"/>
</g>
</svg>
