<svg width="16" height="16" viewBox="0 0 16 16" fill="none" xmlns="http://www.w3.org/2000/svg">
<path d="M13.7798 4.21995C13.9203 4.36058 13.9992 4.5512 13.9992 4.74995C13.9992 4.9487 13.9203 5.13933 13.7798 5.27995L6.52982 12.53C6.3892 12.6704 6.19857 12.7493 5.99982 12.7493C5.80107 12.7493 5.61045 12.6704 5.46982 12.53L2.21982 9.27995C2.08741 9.13769 2.01531 8.94964 2.01867 8.75532C2.02202 8.561 2.10058 8.37555 2.23782 8.23795C2.37543 8.10071 2.56087 8.02215 2.75519 8.0188C2.94951 8.01544 3.13756 8.08754 3.27982 8.21995L5.99982 10.9399L12.7198 4.21995C12.8604 4.0795 13.0511 4.00061 13.2498 4.00061C13.4486 4.00061 13.6392 4.0795 13.7798 4.21995Z" fill="#2B043B"/>
</svg>
