<svg width="25" height="25" viewBox="0 0 25 25" fill="none" xmlns="http://www.w3.org/2000/svg">
<path d="M15.252 9.512L14.906 18.512M10.118 18.512L9.77196 9.512M19.74 6.302C20.082 6.354 20.422 6.409 20.762 6.468M19.74 6.302L18.672 20.185C18.6284 20.7502 18.373 21.2782 17.957 21.6632C17.5409 22.0483 16.9949 22.2622 16.428 22.262H8.59596C8.02906 22.2622 7.48299 22.0483 7.06694 21.6632C6.6509 21.2782 6.39555 20.7502 6.35196 20.185L5.28396 6.302M19.74 6.302C18.5858 6.12751 17.4257 5.99509 16.262 5.905M5.28396 6.302C4.94196 6.353 4.60196 6.408 4.26196 6.467M5.28396 6.302C6.4381 6.12751 7.5982 5.99509 8.76196 5.905M16.262 5.905V4.989C16.262 3.809 15.352 2.825 14.172 2.788C13.0656 2.75263 11.9583 2.75263 10.852 2.788C9.67196 2.825 8.76196 3.81 8.76196 4.989V5.905M16.262 5.905C13.7657 5.71207 11.2582 5.71207 8.76196 5.905" stroke="black" stroke-width="1.5" stroke-linecap="round" stroke-linejoin="round"/>
</svg>
