<svg width="20" height="20" viewBox="0 0 20 20" fill="none" xmlns="http://www.w3.org/2000/svg">
<path d="M17.2909 10L18.2109 8.41001C18.3214 8.21871 18.3515 7.99133 18.2945 7.77786C18.2374 7.5644 18.0979 7.38232 17.9067 7.27167L16.315 6.35167V4.51834C16.315 4.29733 16.2272 4.08537 16.071 3.92909C15.9147 3.7728 15.7027 3.68501 15.4817 3.68501H13.6492L12.73 2.09417C12.619 1.90327 12.4373 1.76376 12.2242 1.70584C12.1185 1.67719 12.0082 1.6698 11.8996 1.6841C11.791 1.69841 11.6864 1.73412 11.5917 1.78917L10 2.70917L8.40836 1.78834C8.21696 1.67784 7.98951 1.64789 7.77603 1.70509C7.56255 1.76229 7.38054 1.90195 7.27003 2.09334L6.35003 3.68501H4.51753C4.29652 3.68501 4.08455 3.7728 3.92827 3.92909C3.77199 4.08537 3.6842 4.29733 3.6842 4.51834V6.35084L2.09253 7.27084C1.99756 7.32547 1.91431 7.39833 1.84758 7.48523C1.78085 7.57212 1.73195 7.67135 1.70369 7.77721C1.67542 7.88306 1.66835 7.99346 1.68288 8.10206C1.69742 8.21065 1.73326 8.31531 1.78836 8.41001L2.70836 10L1.78836 11.59C1.67835 11.7815 1.64851 12.0087 1.70533 12.2221C1.76215 12.4355 1.90103 12.6178 2.0917 12.7292L3.68336 13.6492V15.4817C3.68336 15.7027 3.77116 15.9146 3.92744 16.0709C4.08372 16.2272 4.29568 16.315 4.5167 16.315H6.35003L7.27003 17.9067C7.34381 18.0328 7.44914 18.1375 7.57568 18.2106C7.70221 18.2836 7.84559 18.3225 7.9917 18.3233C8.1367 18.3233 8.28086 18.285 8.4092 18.2108L9.9992 17.2908L11.5909 18.2108C11.7822 18.3212 12.0095 18.3511 12.2229 18.2941C12.4363 18.2371 12.6184 18.0978 12.7292 17.9067L13.6484 16.315H15.4809C15.7019 16.315 15.9138 16.2272 16.0701 16.0709C16.2264 15.9146 16.3142 15.7027 16.3142 15.4817V13.6492L17.9059 12.7292C18.0007 12.6744 18.0838 12.6014 18.1504 12.5145C18.217 12.4276 18.2658 12.3284 18.294 12.2226C18.3223 12.1168 18.3294 12.0065 18.315 11.898C18.3006 11.7894 18.2649 11.6848 18.21 11.59L17.2909 10ZM7.91586 5.82501C8.24749 5.82512 8.5655 5.95696 8.79992 6.19154C9.03434 6.42612 9.16597 6.74421 9.16586 7.07584C9.16575 7.40747 9.03391 7.72548 8.79933 7.9599C8.56475 8.19432 8.24666 8.32595 7.91503 8.32584C7.5834 8.32573 7.26539 8.19388 7.03097 7.95931C6.79655 7.72473 6.66492 7.40664 6.66503 7.07501C6.66514 6.74338 6.79699 6.42537 7.03156 6.19095C7.26614 5.95653 7.58423 5.8249 7.91586 5.82501ZM8.16586 13.825L6.83253 12.8258L11.8325 6.15917L13.1659 7.15834L8.16586 13.825ZM12.0825 14.1583C11.9183 14.1583 11.7557 14.1259 11.604 14.063C11.4524 14.0001 11.3145 13.908 11.1985 13.7918C11.0824 13.6757 10.9903 13.5378 10.9276 13.3861C10.8648 13.2343 10.8325 13.0717 10.8325 12.9075C10.8326 12.7433 10.865 12.5807 10.9279 12.429C10.9908 12.2773 11.0829 12.1395 11.1991 12.0235C11.3152 11.9074 11.4531 11.8153 11.6048 11.7525C11.7565 11.6897 11.9192 11.6575 12.0834 11.6575C12.415 11.6576 12.733 11.7895 12.9674 12.024C13.2018 12.2586 13.3335 12.5767 13.3334 12.9083C13.3333 13.24 13.2014 13.558 12.9668 13.7924C12.7323 14.0268 12.4142 14.1585 12.0825 14.1583Z" fill="white"/>
</svg>
