<svg width="20" height="20" viewBox="0 0 20 20" fill="none" xmlns="http://www.w3.org/2000/svg">
<g id="logos:recaptcha" clip-path="url(#clip0_36_4232)">
<path id="Vector" d="M16.5078 6.96443C16.5075 6.86458 16.5052 6.76475 16.501 6.665V1.00418L15.0094 2.56918C13.7885 1.00139 11.9314 0 9.8512 0C7.68644 0 5.76323 1.0841 4.54761 2.76311L6.99253 5.35525C7.23192 4.89122 7.571 4.49205 7.98292 4.18934C8.4098 3.83992 9.01456 3.5541 9.8512 3.5541C9.95229 3.5541 10.0303 3.56656 10.0876 3.58984C11.1242 3.67574 12.0228 4.2759 12.5517 5.14705L10.821 6.96279C13.0132 6.95377 15.4895 6.94852 16.5076 6.96402" fill="#1C3AA9"/>
<path id="Vector_2" d="M9.81241 0.000244141C9.71724 0.000527437 9.62209 0.00290501 9.52702 0.00737529H4.13155L5.62319 1.57238C4.12889 2.85319 3.17444 4.80172 3.17444 6.98418C3.17444 9.25549 4.20772 11.2733 5.80803 12.5488L8.27866 9.98361C7.83637 9.73242 7.45591 9.37663 7.16741 8.94442C6.83436 8.49664 6.56194 7.86205 6.56194 6.98426C6.56194 6.87828 6.57381 6.79639 6.596 6.73623C6.67788 5.64869 7.24991 4.70598 8.08022 4.15098L9.81084 5.96672C9.80225 3.66672 9.79717 1.0686 9.81202 0.000408075" fill="#4285F4"/>
<path id="Vector_3" d="M3.17468 6.98413C3.175 7.08446 3.17718 7.18421 3.18148 7.28356V12.9444L4.67312 11.3794C5.8939 12.9472 7.75109 13.9486 9.83124 13.9486C11.9961 13.9486 13.9193 12.8645 15.135 11.1854L12.6901 8.59331C12.4507 9.05735 12.1115 9.45652 11.6996 9.75921C11.2728 10.1086 10.668 10.3945 9.83132 10.3945C9.73031 10.3945 9.65226 10.382 9.59492 10.3586C8.55835 10.2728 7.65984 9.67257 7.13085 8.80151L8.86148 6.98569C6.66929 6.9947 4.19296 7.00003 3.17484 6.98454" fill="#ABABAB"/>
<path id="Vector_4" d="M4.29789 16.6532C4.13578 16.6532 3.99039 16.6854 3.8618 16.7499C3.73416 16.8122 3.62215 16.9048 3.53469 17.0205C3.44664 17.1378 3.37883 17.2801 3.33133 17.4473C3.28523 17.613 3.26211 17.7985 3.26211 18.0038V18.5956C3.26211 18.8023 3.28523 18.9886 3.33133 19.1543C3.37883 19.32 3.44594 19.4615 3.53266 19.5789C3.6193 19.6961 3.72406 19.7864 3.84711 19.8494C3.97008 19.9125 4.10852 19.9441 4.26227 19.9441C4.42023 19.9441 4.55859 19.9198 4.67742 19.8714C4.79766 19.8231 4.89828 19.7534 4.9793 19.6624C5.06039 19.57 5.12258 19.4586 5.16594 19.3281C5.2107 19.1976 5.23719 19.0494 5.24562 18.8837H4.85773C4.84797 19.0113 4.83117 19.1206 4.80742 19.2115C4.78367 19.3009 4.74867 19.375 4.70258 19.4336C4.65781 19.4909 4.59914 19.5334 4.52641 19.5613C4.45516 19.5877 4.36703 19.6009 4.26227 19.6009C4.15047 19.6009 4.05539 19.5752 3.97711 19.5238C3.89883 19.471 3.83523 19.3992 3.78633 19.3082C3.73883 19.2173 3.70383 19.111 3.68148 18.9893C3.66055 18.8676 3.65 18.7364 3.65 18.5955V17.9994C3.65 17.8483 3.66258 17.7112 3.68773 17.588C3.7143 17.4649 3.75414 17.36 3.80727 17.2735C3.86039 17.1869 3.9275 17.1202 4.00859 17.0732C4.08961 17.0249 4.18609 17.0007 4.29789 17.0007C4.39156 17.0007 4.47195 17.0154 4.53898 17.0447C4.60529 17.0719 4.66329 17.1175 4.70672 17.1767C4.75148 17.2353 4.7857 17.3101 4.80945 17.401C4.83328 17.492 4.8493 17.6005 4.85773 17.7266H5.24562C5.23859 17.5536 5.21281 17.4004 5.16805 17.2668C5.12328 17.1334 5.06109 17.0212 4.98141 16.9303C4.90172 16.8393 4.80461 16.7705 4.69 16.7235C4.57672 16.6766 4.44609 16.6532 4.29789 16.6532ZM13.7666 16.6532C13.6045 16.6532 13.4591 16.6854 13.3305 16.7499C13.2028 16.8122 13.0908 16.9048 13.0034 17.0205C12.9153 17.1378 12.8476 17.2801 12.8 17.4473C12.7539 17.613 12.7309 17.7985 12.7309 18.0038V18.5956C12.7309 18.8023 12.7539 18.9886 12.8 19.1543C12.8475 19.32 12.9146 19.4615 13.0013 19.5789C13.088 19.6961 13.1927 19.7864 13.3158 19.8494C13.4388 19.9125 13.5772 19.9441 13.7309 19.9441C13.8889 19.9441 14.0273 19.9198 14.1461 19.8714C14.2663 19.8231 14.367 19.7534 14.448 19.6624C14.5291 19.57 14.5912 19.4586 14.6346 19.3281C14.6794 19.1976 14.7059 19.0494 14.7143 18.8837H14.3264C14.3166 19.0113 14.2998 19.1206 14.2761 19.2115C14.2523 19.3009 14.2174 19.375 14.1712 19.4336C14.1266 19.4909 14.0678 19.5334 13.9952 19.5613C13.9238 19.5877 13.8358 19.6009 13.7309 19.6009C13.6191 19.6009 13.5241 19.5752 13.4458 19.5238C13.3675 19.471 13.3039 19.3992 13.255 19.3082C13.2075 19.2173 13.1726 19.111 13.1502 18.9893C13.1292 18.8676 13.1187 18.7364 13.1187 18.5955V17.9994C13.1187 17.8483 13.1313 17.7112 13.1565 17.588C13.183 17.4649 13.2229 17.36 13.276 17.2735C13.3291 17.1869 13.3962 17.1202 13.4773 17.0732C13.5584 17.0249 13.6548 17.0007 13.7666 17.0007C13.8603 17.0007 13.9406 17.0154 14.0077 17.0447C14.0748 17.0726 14.1307 17.1165 14.1755 17.1767C14.2202 17.2353 14.2544 17.3101 14.2782 17.401C14.302 17.492 14.318 17.6005 14.3264 17.7266H14.7143C14.7073 17.5536 14.6815 17.4004 14.6367 17.2668C14.592 17.1334 14.5298 17.0212 14.4501 16.9303C14.3704 16.8393 14.2733 16.7705 14.1587 16.7235C14.0454 16.6766 13.9148 16.6531 13.7666 16.6531L13.7666 16.6532ZM6.50797 16.6972L5.52461 19.9H5.91875L6.1557 19.0641H7.18727L7.42836 19.9H7.82258L6.83711 16.6972H6.50797ZM8.23766 16.6972V19.9H8.62133V18.6461H9.21047C9.35727 18.6461 9.48727 18.6248 9.60047 18.5823C9.71375 18.5383 9.80875 18.4753 9.88562 18.3932C9.96391 18.311 10.0226 18.2098 10.0617 18.0896C10.1023 17.9678 10.1226 17.83 10.1226 17.676C10.1226 17.5337 10.1023 17.4032 10.0617 17.2845C10.0227 17.1642 9.96461 17.0608 9.88773 16.9743C9.81086 16.8863 9.71508 16.8181 9.60047 16.7697C9.48719 16.7214 9.35727 16.6971 9.21047 16.6971H8.23766V16.6972ZM10.4161 16.6972V17.0447H11.217V19.9H11.6006V17.0447H12.4038V16.6972H10.4161ZM15.2322 16.6972V19.9H15.6158V18.4196H16.8445V19.9H17.2303V16.6972H16.8445V18.0742H15.6159V16.6972H15.2322ZM18.6853 16.6972L17.702 19.9H18.0963L18.3331 19.0641H19.3647L19.6059 19.9H20L19.0145 16.6972H18.6854H18.6853ZM8.62125 17.0447H9.21047C9.30414 17.0447 9.38375 17.0623 9.44953 17.0975C9.51656 17.1327 9.57109 17.1796 9.61305 17.2383C9.65734 17.2991 9.68942 17.3687 9.70734 17.4428C9.72836 17.5191 9.73883 17.5983 9.73883 17.6805C9.73883 17.7714 9.72836 17.855 9.70734 17.9313C9.68938 18.0027 9.65725 18.0694 9.61305 18.127C9.57109 18.1813 9.51656 18.2237 9.44945 18.2546C9.38383 18.2854 9.30414 18.3008 9.21039 18.3008H8.62133L8.62125 17.0447ZM6.67141 17.2603L7.08867 18.7165H6.25633L6.67141 17.2603ZM18.8489 17.2603L19.2661 18.7165H18.4338L18.8489 17.2603ZM0.788359 17.4759C0.691875 17.4759 0.608672 17.5015 0.538828 17.5529C0.470312 17.6042 0.413047 17.6739 0.366953 17.7618L0.360625 17.5199H0V19.9H0.371094V18.1973C0.406094 18.0961 0.455703 18.0162 0.52 17.9576C0.585625 17.8989 0.668828 17.8696 0.769453 17.8696C0.801641 17.8696 0.830313 17.871 0.855391 17.874C0.880625 17.8755 0.907891 17.8791 0.937188 17.885L0.935156 17.5066C0.926388 17.5026 0.917215 17.4996 0.907812 17.4977C0.895565 17.493 0.882971 17.4893 0.870156 17.4868C0.85559 17.4838 0.840882 17.4816 0.826094 17.4802C0.813683 17.4774 0.801045 17.476 0.788359 17.4758V17.4759ZM2.03586 17.4759C1.9282 17.4759 1.82414 17.4957 1.72344 17.5353C1.62281 17.5749 1.53336 17.6401 1.45508 17.731C1.3782 17.8205 1.31602 17.9378 1.26852 18.083C1.22094 18.2268 1.19719 18.4035 1.19719 18.6132V18.8815C1.19719 19.0634 1.2175 19.221 1.25805 19.3545C1.29852 19.4879 1.35648 19.5987 1.43203 19.6867C1.50915 19.7734 1.60472 19.8397 1.71094 19.8803C1.81992 19.9228 1.94219 19.9441 2.07781 19.9441C2.17563 19.9441 2.26297 19.9338 2.33992 19.9132C2.4182 19.8927 2.48734 19.8664 2.5475 19.8341C2.60375 19.8032 2.65591 19.7648 2.70266 19.7197C2.74382 19.6798 2.78104 19.6355 2.81375 19.5877L2.62086 19.3414C2.59008 19.3809 2.55727 19.4176 2.52234 19.4513C2.48734 19.4836 2.44891 19.5122 2.40703 19.5371C2.36321 19.5613 2.31671 19.5798 2.26859 19.5921C2.21299 19.6059 2.15598 19.6126 2.09883 19.6119C1.92687 19.6119 1.79477 19.554 1.7025 19.4382C1.61164 19.3223 1.56625 19.1368 1.56625 18.8816V18.8265H2.83266V18.6C2.83266 18.4182 2.81797 18.2575 2.78859 18.1182C2.75922 17.9789 2.71242 17.8616 2.64812 17.7663C2.58555 17.6725 2.5001 17.598 2.4007 17.5507C2.30008 17.5008 2.17844 17.4759 2.03586 17.4759ZM2.03586 17.8103C2.11695 17.8103 2.18406 17.8256 2.23719 17.8564C2.28974 17.8867 2.33328 17.9316 2.36297 17.9862C2.39508 18.0419 2.4182 18.1086 2.43219 18.1864C2.4475 18.2627 2.45734 18.347 2.46148 18.4394V18.4922H1.56828C1.57391 18.3587 1.5893 18.248 1.61437 18.16C1.63961 18.072 1.67242 18.0023 1.71297 17.951C1.75492 17.8982 1.80313 17.8616 1.85766 17.841C1.91491 17.82 1.97521 17.8096 2.03586 17.8102V17.8103Z" fill="#A6A6A6"/>
</g>
<defs>
<clipPath id="clip0_36_4232">
<rect width="20" height="20" fill="white"/>
</clipPath>
</defs>
</svg>
